<?xml version="1.0" encoding="UTF-8" standalone="no"?><svg xmlns="http://www.w3.org/2000/svg" xmlns:xlink="http://www.w3.org/1999/xlink" contentScriptType="application/ecmascript" contentStyleType="text/css" height="887px" preserveAspectRatio="none" style="width:831px;height:887px;" version="1.1" viewBox="0 0 831 887" width="831px" zoomAndPan="magnify"><defs/><g><ellipse cx="319" cy="16" fill="#000000" rx="10" ry="10" style="stroke: none; stroke-width: 1.0;"/><rect fill="#C8E2F9" height="38.75" rx="12.5" ry="12.5" style="stroke: #C8E2F9; stroke-width: 1.5;" width="151" x="243.5" y="66"/><text fill="#000000" font-family="Roboto Condensed" font-size="16" lengthAdjust="spacingAndGlyphs" textLength="131" x="253.5" y="90.8438">100: Mother's Crown</text><rect fill="#BBF395" height="38.75" rx="12.5" ry="12.5" style="stroke: #BBF395; stroke-width: 1.5;" width="231" x="414.5" y="66"/><text fill="#000000" font-family="Roboto Condensed" font-size="16" lengthAdjust="spacingAndGlyphs" textLength="211" x="424.5" y="90.8438">101: The Road to Mother's Watch</text><rect fill="#C8E2F9" height="38.75" rx="12.5" ry="12.5" style="stroke: #C8E2F9; stroke-width: 1.5;" width="44" x="179" y="66"/><text fill="#000000" font-family="Roboto Condensed" font-size="16" lengthAdjust="spacingAndGlyphs" textLength="24" x="189" y="90.8438">146</text><rect fill="#C8E2F9" height="38.75" rx="12.5" ry="12.5" style="stroke: #C8E2F9; stroke-width: 1.5;" width="44" x="173" y="145"/><text fill="#000000" font-family="Roboto Condensed" font-size="16" lengthAdjust="spacingAndGlyphs" textLength="24" x="183" y="169.8438">147</text><rect fill="#FFFF99" height="38.75" rx="12.5" ry="12.5" style="stroke: #FFFF99; stroke-width: 1.5;" width="44" x="508" y="145"/><text fill="#000000" font-family="Roboto Condensed" font-size="16" lengthAdjust="spacingAndGlyphs" textLength="24" x="518" y="169.8438">162</text><rect fill="#C8E2F9" height="38.75" rx="12.5" ry="12.5" style="stroke: #C8E2F9; stroke-width: 1.5;" width="138" x="682" y="540"/><text fill="#000000" font-family="Roboto Condensed" font-size="16" lengthAdjust="spacingAndGlyphs" textLength="118" x="692" y="564.8438">102: Olara &amp; Brom</text><rect fill="#C8E2F9" height="38.75" rx="12.5" ry="12.5" style="stroke: #C8E2F9; stroke-width: 1.5;" width="44" x="618" y="540"/><text fill="#000000" font-family="Roboto Condensed" font-size="16" lengthAdjust="spacingAndGlyphs" textLength="24" x="628" y="564.8438">141</text><rect fill="#FFFF99" height="38.75" rx="12.5" ry="12.5" style="stroke: #FFFF99; stroke-width: 1.5;" width="44" x="711" y="619"/><text fill="#000000" font-family="Roboto Condensed" font-size="16" lengthAdjust="spacingAndGlyphs" textLength="24" x="721" y="643.8438">142</text><rect fill="#C8E2F9" height="38.75" rx="12.5" ry="12.5" style="stroke: #C8E2F9; stroke-width: 1.5;" width="229" x="71.5" y="619"/><text fill="#000000" font-family="Roboto Condensed" font-size="16" lengthAdjust="spacingAndGlyphs" textLength="209" x="81.5" y="643.8438">103: Forest Near Mother's Watch</text><rect fill="#C8E2F9" height="38.75" rx="12.5" ry="12.5" style="stroke: #C8E2F9; stroke-width: 1.5;" width="44" x="321" y="619"/><text fill="#000000" font-family="Roboto Condensed" font-size="16" lengthAdjust="spacingAndGlyphs" textLength="24" x="331" y="643.8438">104</text><rect fill="#EEAD63" height="38.75" rx="12.5" ry="12.5" style="stroke: #EEAD63; stroke-width: 1.5;" width="44" x="385" y="619"/><text fill="#000000" font-family="Roboto Condensed" font-size="16" lengthAdjust="spacingAndGlyphs" textLength="24" x="395" y="643.8438">105</text><rect fill="#C8E2F9" height="38.75" rx="12.5" ry="12.5" style="stroke: #C8E2F9; stroke-width: 1.5;" width="44" x="449" y="619"/><text fill="#000000" font-family="Roboto Condensed" font-size="16" lengthAdjust="spacingAndGlyphs" textLength="24" x="459" y="643.8438">106</text><rect fill="#C8E2F9" height="38.75" rx="12.5" ry="12.5" style="stroke: #C8E2F9; stroke-width: 1.5;" width="44" x="513" y="619"/><text fill="#000000" font-family="Roboto Condensed" font-size="16" lengthAdjust="spacingAndGlyphs" textLength="24" x="523" y="643.8438">198</text><rect fill="#C8E2F9" height="38.75" rx="12.5" ry="12.5" style="stroke: #C8E2F9; stroke-width: 1.5;" width="44" x="257" y="461"/><text fill="#000000" font-family="Roboto Condensed" font-size="16" lengthAdjust="spacingAndGlyphs" textLength="24" x="267" y="485.8438">107</text><rect fill="#F9E2C8" height="38.75" rx="12.5" ry="12.5" style="stroke: #F9E2C8; stroke-width: 1.5;" width="44" x="321" y="461"/><text fill="#000000" font-family="Roboto Condensed" font-size="16" lengthAdjust="spacingAndGlyphs" textLength="24" x="331" y="485.8438">108</text><rect fill="#C8E2F9" height="38.75" rx="12.5" ry="12.5" style="stroke: #C8E2F9; stroke-width: 1.5;" width="151" x="385.5" y="461"/><text fill="#000000" font-family="Roboto Condensed" font-size="16" lengthAdjust="spacingAndGlyphs" textLength="131" x="395.5" y="485.8438">156: Mother's Watch</text><rect fill="#F9E2C8" height="38.75" rx="12.5" ry="12.5" style="stroke: #F9E2C8; stroke-width: 1.5;" width="44" x="129" y="461"/><text fill="#000000" font-family="Roboto Condensed" font-size="16" lengthAdjust="spacingAndGlyphs" textLength="24" x="139" y="485.8438">112</text><rect fill="#FFFF99" height="38.75" rx="12.5" ry="12.5" style="stroke: #FFFF99; stroke-width: 1.5;" width="44" x="65" y="461"/><text fill="#000000" font-family="Roboto Condensed" font-size="16" lengthAdjust="spacingAndGlyphs" textLength="24" x="75" y="485.8438">123</text><rect fill="#C8E2F9" height="38.75" rx="12.5" ry="12.5" style="stroke: #C8E2F9; stroke-width: 1.5;" width="44" x="129" y="540"/><text fill="#000000" font-family="Roboto Condensed" font-size="16" lengthAdjust="spacingAndGlyphs" textLength="24" x="139" y="564.8438">124</text><rect fill="#C8E2F9" height="38.75" rx="12.5" ry="12.5" style="stroke: #C8E2F9; stroke-width: 1.5;" width="44" x="193" y="303"/><text fill="#000000" font-family="Roboto Condensed" font-size="16" lengthAdjust="spacingAndGlyphs" textLength="24" x="203" y="327.8438">117</text><rect fill="#C8E2F9" height="38.75" rx="12.5" ry="12.5" style="stroke: #C8E2F9; stroke-width: 1.5;" width="44" x="225" y="382"/><text fill="#000000" font-family="Roboto Condensed" font-size="16" lengthAdjust="spacingAndGlyphs" textLength="24" x="235" y="406.8438">118</text><rect fill="#C8E2F9" height="38.75" rx="12.5" ry="12.5" style="stroke: #C8E2F9; stroke-width: 1.5;" width="44" x="289" y="382"/><text fill="#000000" font-family="Roboto Condensed" font-size="16" lengthAdjust="spacingAndGlyphs" textLength="24" x="299" y="406.8438">168</text><rect fill="#C8E2F9" height="38.75" rx="12.5" ry="12.5" style="stroke: #C8E2F9; stroke-width: 1.5;" width="44" x="120" y="224"/><text fill="#000000" font-family="Roboto Condensed" font-size="16" lengthAdjust="spacingAndGlyphs" textLength="24" x="130" y="248.8438">120</text><rect fill="#C8E2F9" height="38.75" rx="12.5" ry="12.5" style="stroke: #C8E2F9; stroke-width: 1.5;" width="190" x="184" y="224"/><text fill="#000000" font-family="Roboto Condensed" font-size="16" lengthAdjust="spacingAndGlyphs" textLength="170" x="194" y="248.8438">173: Mother's Watch Ruins</text><rect fill="#C8E2F9" height="38.75" rx="12.5" ry="12.5" style="stroke: #C8E2F9; stroke-width: 1.5;" width="44" x="115" y="66"/><text fill="#000000" font-family="Roboto Condensed" font-size="16" lengthAdjust="spacingAndGlyphs" textLength="24" x="125" y="90.8438">121</text><rect fill="#C8E2F9" height="38.75" rx="12.5" ry="12.5" style="stroke: #C8E2F9; stroke-width: 1.5;" width="75" x="556.5" y="461"/><text fill="#000000" font-family="Roboto Condensed" font-size="16" lengthAdjust="spacingAndGlyphs" textLength="55" x="566.5" y="485.8438">129: Teb</text><rect fill="#C8E2F9" height="38.75" rx="12.5" ry="12.5" style="stroke: #C8E2F9; stroke-width: 1.5;" width="44" x="554" y="540"/><text fill="#000000" font-family="Roboto Condensed" font-size="16" lengthAdjust="spacingAndGlyphs" textLength="24" x="564" y="564.8438">136</text><rect fill="#C8E2F9" height="38.75" rx="12.5" ry="12.5" style="stroke: #C8E2F9; stroke-width: 1.5;" width="44" x="161" y="382"/><text fill="#000000" font-family="Roboto Condensed" font-size="16" lengthAdjust="spacingAndGlyphs" textLength="24" x="171" y="406.8438">134</text><rect fill="#C8E2F9" height="38.75" rx="12.5" ry="12.5" style="stroke: #C8E2F9; stroke-width: 1.5;" width="44" x="490" y="540"/><text fill="#000000" font-family="Roboto Condensed" font-size="16" lengthAdjust="spacingAndGlyphs" textLength="24" x="500" y="564.8438">137</text><rect fill="#BBF395" height="38.75" rx="12.5" ry="12.5" style="stroke: #BBF395; stroke-width: 1.5;" width="44" x="7" y="619"/><text fill="#000000" font-family="Roboto Condensed" font-size="16" lengthAdjust="spacingAndGlyphs" textLength="24" x="17" y="643.8438">191</text><rect fill="#C8E2F9" height="38.75" rx="12.5" ry="12.5" style="stroke: #C8E2F9; stroke-width: 1.5;" width="44" x="257" y="303"/><text fill="#000000" font-family="Roboto Condensed" font-size="16" lengthAdjust="spacingAndGlyphs" textLength="24" x="267" y="327.8438">150</text><rect fill="#C8E2F9" height="38.75" rx="12.5" ry="12.5" style="stroke: #C8E2F9; stroke-width: 1.5;" width="44" x="193" y="461"/><text fill="#000000" font-family="Roboto Condensed" font-size="16" lengthAdjust="spacingAndGlyphs" textLength="24" x="203" y="485.8438">186</text><rect fill="#C8E2F9" height="38.75" rx="12.5" ry="12.5" style="stroke: #C8E2F9; stroke-width: 1.5;" width="44" x="577" y="619"/><text fill="#000000" font-family="Roboto Condensed" font-size="16" lengthAdjust="spacingAndGlyphs" textLength="24" x="587" y="643.8438">199</text><ellipse cx="599" cy="708" fill="none" rx="10" ry="10" style="stroke: #000000; stroke-width: 1.0;"/><ellipse cx="599.5" cy="708.5" fill="#000000" rx="6" ry="6" style="stroke: none; stroke-width: 1.0;"/><path d="M319,26.1 C319,34.98 319,48.87 319,60.87 " fill="none" id="start-&gt;e100" style="stroke: #CCCCCC; stroke-width: 1.0;"/><polygon fill="#CCCCCC" points="319,65.88,323,56.88,319,60.88,315,56.88,319,65.88" style="stroke: #CCCCCC; stroke-width: 1.0;"/><path d="M394.83,85.5 C399.61,85.5 404.39,85.5 409.18,85.5 " fill="none" id="e100-&gt;e101" style="stroke: #CCCCCC; stroke-width: 1.0;"/><polygon fill="#CCCCCC" points="414.36,85.5,405.36,81.5,409.36,85.5,405.36,89.5,414.36,85.5" style="stroke: #CCCCCC; stroke-width: 1.0;"/><path d="M219.56,62.34 C226.18,55.78 234.21,49.49 243,46 C305.8,21.11 328.13,36.42 395,46 C422.32,49.91 451.82,58.07 476.26,65.96 " fill="none" id="e146&lt;-e101" style="stroke: #CCCCCC; stroke-width: 1.0;"/><polygon fill="#CCCCCC" points="216.02,65.99,225.1466,62.2879,219.4907,62.3908,219.3878,56.7349,216.02,65.99" style="stroke: #CCCCCC; stroke-width: 1.0;"/><path d="M449.33,105.04 C375.73,121.96 271.22,145.98 222.27,157.23 " fill="none" id="e101-&gt;e147" style="stroke: #CCCCCC; stroke-width: 1.0;"/><polygon fill="#CCCCCC" points="217.15,158.41,226.8141,160.3086,222.0248,157.2982,225.0352,152.5089,217.15,158.41" style="stroke: #CCCCCC; stroke-width: 1.0;"/><path d="M530,105.14 C530,115.47 530,128.42 530,139.5 " fill="none" id="e101-&gt;e162" style="stroke: #CCCCCC; stroke-width: 1.0;"/><polygon fill="#CCCCCC" points="530,144.77,534,135.77,530,139.77,526,135.77,530,144.77" style="stroke: #CCCCCC; stroke-width: 1.0;"/><path d="M667.37,559.5 C672.22,559.5 677.06,559.5 681.9,559.5 " fill="none" id="e141&lt;-e102" style="stroke: #CCCCCC; stroke-width: 1.0;"/><polygon fill="#CCCCCC" points="662.11,559.5,671.11,563.5,667.11,559.5,671.11,555.5,662.11,559.5" style="stroke: #CCCCCC; stroke-width: 1.0;"/><path d="M746.64,579.14 C744.21,589.56 741.15,602.66 738.54,613.8 " fill="none" id="e102-&gt;e142" style="stroke: #CCCCCC; stroke-width: 1.0;"/><polygon fill="#CCCCCC" points="737.38,618.77,743.308,610.905,738.5085,613.899,735.5145,609.0994,737.38,618.77" style="stroke: #CCCCCC; stroke-width: 1.0;"/><path d="M300.68,638.5 C305.73,638.5 310.77,638.5 315.81,638.5 " fill="none" id="e103-&gt;e104" style="stroke: #CCCCCC; stroke-width: 1.0;"/><polygon fill="#CCCCCC" points="320.85,638.5,311.85,634.5,315.85,638.5,311.85,642.5,320.85,638.5" style="stroke: #CCCCCC; stroke-width: 1.0;"/><path d="M365.5,638.5 C370.26,638.5 375.02,638.5 379.79,638.5 " fill="none" id="e104-&gt;e105" style="stroke: #CCCCCC; stroke-width: 1.0;"/><polygon fill="#CCCCCC" points="384.95,638.5,375.95,634.5,379.95,638.5,375.95,642.5,384.95,638.5" style="stroke: #CCCCCC; stroke-width: 1.0;"/><path d="M429.25,638.5 C434.04,638.5 438.83,638.5 443.62,638.5 " fill="none" id="e105-&gt;e106" style="stroke: #CCCCCC; stroke-width: 1.0;"/><polygon fill="#CCCCCC" points="448.82,638.5,439.82,634.5,443.82,638.5,439.82,642.5,448.82,638.5" style="stroke: #CCCCCC; stroke-width: 1.0;"/><path d="M493,638.5 C497.82,638.5 502.64,638.5 507.46,638.5 " fill="none" id="e106-&gt;e198" style="stroke: #CCCCCC; stroke-width: 1.0;"/><polygon fill="#CCCCCC" points="512.69,638.5,503.69,634.5,507.69,638.5,503.69,642.5,512.69,638.5" style="stroke: #CCCCCC; stroke-width: 1.0;"/><path d="M301.25,480.5 C306.04,480.5 310.83,480.5 315.62,480.5 " fill="none" id="e107-&gt;e108" style="stroke: #CCCCCC; stroke-width: 1.0;"/><polygon fill="#CCCCCC" points="320.82,480.5,311.82,476.5,315.82,480.5,311.82,484.5,320.82,480.5" style="stroke: #CCCCCC; stroke-width: 1.0;"/><path d="M365.12,480.5 C370.18,480.5 375.24,480.5 380.29,480.5 " fill="none" id="e108-&gt;e156" style="stroke: #CCCCCC; stroke-width: 1.0;"/><polygon fill="#CCCCCC" points="385.35,480.5,376.35,476.5,380.35,480.5,376.35,484.5,385.35,480.5" style="stroke: #CCCCCC; stroke-width: 1.0;"/><path d="M114.23,480.5 C119.05,480.5 123.87,480.5 128.69,480.5 " fill="none" id="e123&lt;-e112" style="stroke: #CCCCCC; stroke-width: 1.0;"/><polygon fill="#CCCCCC" points="109,480.5,118,484.5,114,480.5,118,476.5,109,480.5" style="stroke: #CCCCCC; stroke-width: 1.0;"/><path d="M151,500.14 C151,510.47 151,523.42 151,534.5 " fill="none" id="e112-&gt;e124" style="stroke: #CCCCCC; stroke-width: 1.0;"/><polygon fill="#CCCCCC" points="151,539.77,155,530.77,151,534.77,147,530.77,151,539.77" style="stroke: #CCCCCC; stroke-width: 1.0;"/><path d="M222.75,342.14 C227.12,352.65 232.62,365.89 237.28,377.1 " fill="none" id="e117-&gt;e118" style="stroke: #CCCCCC; stroke-width: 1.0;"/><polygon fill="#CCCCCC" points="239.21,381.77,239.4559,371.9242,237.294,377.1517,232.0666,374.9898,239.21,381.77" style="stroke: #CCCCCC; stroke-width: 1.0;"/><path d="M269.5,401.5 C274.26,401.5 279.02,401.5 283.79,401.5 " fill="none" id="e118-&gt;e168" style="stroke: #CCCCCC; stroke-width: 1.0;"/><polygon fill="#CCCCCC" points="288.95,401.5,279.95,397.5,283.95,401.5,279.95,405.5,288.95,401.5" style="stroke: #CCCCCC; stroke-width: 1.0;"/><path d="M164.21,243.5 C169.04,243.5 173.87,243.5 178.7,243.5 " fill="none" id="e120-&gt;e173" style="stroke: #CCCCCC; stroke-width: 1.0;"/><polygon fill="#CCCCCC" points="183.94,243.5,174.94,239.5,178.94,243.5,174.94,247.5,183.94,243.5" style="stroke: #CCCCCC; stroke-width: 1.0;"/><path d="M159.27,100.17 C184.16,115.56 221.68,139.2 227,145 C247.05,166.86 261.85,197.88 270.42,219.02 " fill="none" id="e121-&gt;e173" style="stroke: #CCCCCC; stroke-width: 1.0;"/><polygon fill="#CCCCCC" points="272.37,223.9,272.7675,214.0592,270.5254,219.2527,265.3318,217.0106,272.37,223.9" style="stroke: #CCCCCC; stroke-width: 1.0;"/><path d="M102.49,500.14 C111.39,510.84 122.63,524.37 132.05,535.7 " fill="none" id="e123-&gt;e124" style="stroke: #CCCCCC; stroke-width: 1.0;"/><polygon fill="#CCCCCC" points="135.43,539.77,132.7447,530.2943,132.2305,535.9277,126.597,535.4135,135.43,539.77" style="stroke: #CCCCCC; stroke-width: 1.0;"/><path d="M159.47,579.14 C164.25,589.65 170.27,602.89 175.36,614.1 " fill="none" id="e124-&gt;e103" style="stroke: #CCCCCC; stroke-width: 1.0;"/><polygon fill="#CCCCCC" points="177.48,618.77,177.3972,608.9215,175.411,614.2182,170.1143,612.2319,177.48,618.77" style="stroke: #CCCCCC; stroke-width: 1.0;"/><path d="M169.56,457.34 C176.18,450.78 184.21,444.49 193,441 C264.07,412.83 464.04,418.19 537,441 C549.87,445.02 562.39,453.09 572.4,460.89 " fill="none" id="e112&lt;-e129" style="stroke: #CCCCCC; stroke-width: 1.0;"/><polygon fill="#CCCCCC" points="166.02,460.99,175.1466,457.2879,169.4907,457.3908,169.3878,451.7349,166.02,460.99" style="stroke: #CCCCCC; stroke-width: 1.0;"/><path d="M589.64,500.14 C587.21,510.56 584.15,523.66 581.54,534.8 " fill="none" id="e129-&gt;e136" style="stroke: #CCCCCC; stroke-width: 1.0;"/><polygon fill="#CCCCCC" points="580.38,539.77,586.308,531.905,581.5085,534.899,578.5145,530.0994,580.38,539.77" style="stroke: #CCCCCC; stroke-width: 1.0;"/><path d="M205.27,420.36 C219.44,431.73 237.87,446.51 252.76,458.45 " fill="none" id="e134-&gt;e107" style="stroke: #CCCCCC; stroke-width: 1.0;"/><polygon fill="#CCCCCC" points="256.86,461.74,252.3427,452.9882,252.9598,458.6113,247.3368,459.2285,256.86,461.74" style="stroke: #CCCCCC; stroke-width: 1.0;"/><path d="M539.45,559.5 C544.24,559.5 549.03,559.5 553.82,559.5 " fill="none" id="e137&lt;-e136" style="stroke: #CCCCCC; stroke-width: 1.0;"/><polygon fill="#CCCCCC" points="534.25,559.5,543.25,563.5,539.25,559.5,543.25,555.5,534.25,559.5" style="stroke: #CCCCCC; stroke-width: 1.0;"/><path d="M553.85,574.94 C550.64,576.54 547.31,577.96 544,579 C338.44,643.36 266.56,554.64 61,619 C59.24,619.55 57.48,620.21 55.73,620.95 " fill="none" id="e136-&gt;e191" style="stroke: #CCCCCC; stroke-width: 1.0;"/><polygon fill="#CCCCCC" points="51.15,623.06,60.9978,622.9144,55.6885,620.962,57.641,615.6528,51.15,623.06" style="stroke: #CCCCCC; stroke-width: 1.0;"/><path d="M527.02,539.99 C534.24,532.21 543.58,524.13 554,520 C598.62,502.31 615.04,510.05 662,520 C678.79,523.56 696.25,530.5 711.22,537.59 " fill="none" id="e137-&gt;e102" style="stroke: #CCCCCC; stroke-width: 1.0;"/><polygon fill="#CCCCCC" points="715.78,539.79,709.4034,532.2841,711.2742,537.6226,705.9356,539.4934,715.78,539.79" style="stroke: #CCCCCC; stroke-width: 1.0;"/><path d="M662.04,578.75 C675.49,589.89 692.76,604.19 706.9,615.89 " fill="none" id="e141-&gt;e142" style="stroke: #CCCCCC; stroke-width: 1.0;"/><polygon fill="#CCCCCC" points="710.8,619.12,706.408,610.3046,706.9449,615.936,701.3136,616.4728,710.8,619.12" style="stroke: #CCCCCC; stroke-width: 1.0;"/><path d="M164.67,85.5 C169.43,85.5 174.19,85.5 178.95,85.5 " fill="none" id="e121&lt;-e146" style="stroke: #CCCCCC; stroke-width: 1.0;"/><polygon fill="#CCCCCC" points="159.5,85.5,168.5,89.5,164.5,85.5,168.5,81.5,159.5,85.5" style="stroke: #CCCCCC; stroke-width: 1.0;"/><path d="M186.46,105.01 C178.45,116.06 168.95,130.69 163,145 C152.99,169.07 147.49,198.55 144.66,218.75 " fill="none" id="e146-&gt;e120" style="stroke: #CCCCCC; stroke-width: 1.0;"/><polygon fill="#CCCCCC" points="143.96,223.93,149.1318,215.5483,144.6311,218.9752,141.2042,214.4746,143.96,223.93" style="stroke: #CCCCCC; stroke-width: 1.0;"/><path d="M154.1,109.2 C162.63,120.52 172.81,134.05 180.89,144.77 " fill="none" id="e121&lt;-e147" style="stroke: #CCCCCC; stroke-width: 1.0;"/><polygon fill="#CCCCCC" points="151.04,105.14,153.2619,114.735,154.0491,109.1331,159.6509,109.9204,151.04,105.14" style="stroke: #CCCCCC; stroke-width: 1.0;"/><path d="M182.17,184.14 C174.87,194.75 165.66,208.13 157.9,219.4 " fill="none" id="e147-&gt;e120" style="stroke: #CCCCCC; stroke-width: 1.0;"/><polygon fill="#CCCCCC" points="154.9,223.77,163.307,218.6395,157.7423,219.6565,156.7254,214.0918,154.9,223.77" style="stroke: #CCCCCC; stroke-width: 1.0;"/><path d="M242.67,322.5 C247.43,322.5 252.19,322.5 256.95,322.5 " fill="none" id="e117&lt;-e150" style="stroke: #CCCCCC; stroke-width: 1.0;"/><polygon fill="#CCCCCC" points="237.5,322.5,246.5,326.5,242.5,322.5,246.5,318.5,237.5,322.5" style="stroke: #CCCCCC; stroke-width: 1.0;"/><path d="M271.25,342.14 C266.88,352.65 261.38,365.89 256.72,377.1 " fill="none" id="e150-&gt;e118" style="stroke: #CCCCCC; stroke-width: 1.0;"/><polygon fill="#CCCCCC" points="254.79,381.77,261.9334,374.9898,256.706,377.1517,254.5441,371.9242,254.79,381.77" style="stroke: #CCCCCC; stroke-width: 1.0;"/><path d="M536.59,480.5 C541.42,480.5 546.25,480.5 551.08,480.5 " fill="none" id="e156-&gt;e129" style="stroke: #CCCCCC; stroke-width: 1.0;"/><polygon fill="#CCCCCC" points="556.33,480.5,547.33,476.5,551.33,480.5,547.33,484.5,556.33,480.5" style="stroke: #CCCCCC; stroke-width: 1.0;"/><path d="M201.56,378.34 C208.18,371.78 216.21,365.49 225,362 C243.18,354.79 250.82,354.79 269,362 C279.42,366.13 288.76,374.21 295.98,381.99 " fill="none" id="e134&lt;-e168" style="stroke: #CCCCCC; stroke-width: 1.0;"/><polygon fill="#CCCCCC" points="198.02,381.99,207.1466,378.2879,201.4907,378.3908,201.3878,372.7349,198.02,381.99" style="stroke: #CCCCCC; stroke-width: 1.0;"/><path d="M288.73,420.36 C274.56,431.73 256.13,446.51 241.24,458.45 " fill="none" id="e168-&gt;e186" style="stroke: #CCCCCC; stroke-width: 1.0;"/><polygon fill="#CCCCCC" points="237.14,461.74,246.6632,459.2285,241.0402,458.6113,241.6573,452.9882,237.14,461.74" style="stroke: #CCCCCC; stroke-width: 1.0;"/><path d="M279,263.14 C279,273.47 279,286.42 279,297.5 " fill="none" id="e173-&gt;e150" style="stroke: #CCCCCC; stroke-width: 1.0;"/><polygon fill="#CCCCCC" points="279,302.77,283,293.77,279,297.77,275,293.77,279,302.77" style="stroke: #CCCCCC; stroke-width: 1.0;"/><path d="M237.5,480.5 C242.26,480.5 247.02,480.5 251.79,480.5 " fill="none" id="e186-&gt;e107" style="stroke: #CCCCCC; stroke-width: 1.0;"/><polygon fill="#CCCCCC" points="256.95,480.5,247.95,476.5,251.95,480.5,247.95,484.5,256.95,480.5" style="stroke: #CCCCCC; stroke-width: 1.0;"/><path d="M51.08,638.5 C56.15,638.5 61.22,638.5 66.3,638.5 " fill="none" id="e191-&gt;e103" style="stroke: #CCCCCC; stroke-width: 1.0;"/><polygon fill="#CCCCCC" points="71.37,638.5,62.37,634.5,66.37,638.5,62.37,642.5,71.37,638.5" style="stroke: #CCCCCC; stroke-width: 1.0;"/><path d="M557.25,638.5 C562.04,638.5 566.83,638.5 571.62,638.5 " fill="none" id="e198-&gt;e199" style="stroke: #CCCCCC; stroke-width: 1.0;"/><polygon fill="#CCCCCC" points="576.82,638.5,567.82,634.5,571.82,638.5,567.82,642.5,576.82,638.5" style="stroke: #CCCCCC; stroke-width: 1.0;"/><path d="M599,658.3 C599,669.23 599,682.78 599,692.81 " fill="none" id="e199-&gt;end" style="stroke: #CCCCCC; stroke-width: 1.0;"/><polygon fill="#CCCCCC" points="599,697.98,603,688.98,599,692.98,595,688.98,599,697.98" style="stroke: #CCCCCC; stroke-width: 1.0;"/><rect fill="#FFFFFF" height="145.25" rx="5" ry="5" style="stroke: #FFFFFF; stroke-width: 0.0;" width="328" x="242" y="731"/><text fill="#000000" font-family="Roboto Condensed" font-size="16" font-weight="bold" lengthAdjust="spacingAndGlyphs" textLength="32" x="252" y="752.8438">Type</text><text fill="#000000" font-family="Roboto Condensed" font-size="16" font-weight="bold" lengthAdjust="spacingAndGlyphs" textLength="73" x="383" y="752.8438">Description</text><rect fill="#C8E2F9" height="18.75" style="stroke: none; stroke-width: 1.0;" width="131" x="248" y="756.75"/><text fill="#000000" font-family="Roboto Condensed" font-size="16" lengthAdjust="spacingAndGlyphs" textLength="45" x="252" y="771.5938">(Other)</text><text fill="#000000" font-family="Roboto Condensed" font-size="16" lengthAdjust="spacingAndGlyphs" textLength="33" x="383" y="771.5938">Story</text><rect fill="#FFFF99" height="18.75" style="stroke: none; stroke-width: 1.0;" width="131" x="248" y="775.5"/><text fill="#000000" font-family="Roboto Condensed" font-size="16" lengthAdjust="spacingAndGlyphs" textLength="73" x="252" y="790.3438">Not Started</text><text fill="#000000" font-family="Roboto Condensed" font-size="16" lengthAdjust="spacingAndGlyphs" textLength="161" x="383" y="790.3438">Story, needs to be written</text><rect fill="#EEFFCC" height="18.75" style="stroke: none; stroke-width: 1.0;" width="131" x="248" y="794.25"/><text fill="#000000" font-family="Roboto Condensed" font-size="16" lengthAdjust="spacingAndGlyphs" textLength="37" x="252" y="809.0938">TODO</text><text fill="#000000" font-family="Roboto Condensed" font-size="16" lengthAdjust="spacingAndGlyphs" textLength="116" x="383" y="809.0938">Story, not finished</text><rect fill="#BBF395" height="18.75" style="stroke: none; stroke-width: 1.0;" width="131" x="248" y="813"/><text fill="#000000" font-family="Roboto Condensed" font-size="16" lengthAdjust="spacingAndGlyphs" textLength="39" x="252" y="827.8438">Travel</text><text fill="#000000" font-family="Roboto Condensed" font-size="16" lengthAdjust="spacingAndGlyphs" textLength="74" x="383" y="827.8438">Party travel</text><rect fill="#EEAD63" height="18.75" style="stroke: none; stroke-width: 1.0;" width="131" x="248" y="831.75"/><text fill="#000000" font-family="Roboto Condensed" font-size="16" lengthAdjust="spacingAndGlyphs" textLength="64" x="252" y="846.5938">Encounter</text><text fill="#000000" font-family="Roboto Condensed" font-size="16" lengthAdjust="spacingAndGlyphs" textLength="176" x="383" y="846.5938">Combat encounter, required</text><rect fill="#F9E2C8" height="18.75" style="stroke: none; stroke-width: 1.0;" width="131" x="248" y="850.5"/><text fill="#000000" font-family="Roboto Condensed" font-size="16" lengthAdjust="spacingAndGlyphs" textLength="123" x="252" y="865.3438">Optional Encounter</text><text fill="#000000" font-family="Roboto Condensed" font-size="16" lengthAdjust="spacingAndGlyphs" textLength="177" x="383" y="865.3438">Combat encounter, optional</text><line style="stroke: #000000; stroke-width: 1.0;" x1="248" x2="564" y1="738" y2="738"/><line style="stroke: #000000; stroke-width: 1.0;" x1="248" x2="564" y1="756.75" y2="756.75"/><line style="stroke: #000000; stroke-width: 1.0;" x1="248" x2="564" y1="775.5" y2="775.5"/><line style="stroke: #000000; stroke-width: 1.0;" x1="248" x2="564" y1="794.25" y2="794.25"/><line style="stroke: #000000; stroke-width: 1.0;" x1="248" x2="564" y1="813" y2="813"/><line style="stroke: #000000; stroke-width: 1.0;" x1="248" x2="564" y1="831.75" y2="831.75"/><line style="stroke: #000000; stroke-width: 1.0;" x1="248" x2="564" y1="850.5" y2="850.5"/><line style="stroke: #000000; stroke-width: 1.0;" x1="248" x2="564" y1="869.25" y2="869.25"/><line style="stroke: #000000; stroke-width: 1.0;" x1="248" x2="248" y1="738" y2="869.25"/><line style="stroke: #000000; stroke-width: 1.0;" x1="379" x2="379" y1="738" y2="869.25"/><line style="stroke: #000000; stroke-width: 1.0;" x1="564" x2="564" y1="738" y2="869.25"/></g></svg>